<svg width="80" height="23" viewBox="0 0 80 23" fill="none" xmlns="http://www.w3.org/2000/svg">
<path d="M0.295 22.84V0.471998L36.583 17.4V0.599998H40.231V23L40.103 22.936C39.303 22.616 34.471 20.248 3.975 6.04V22.84H0.295ZM44.0763 22.936V0.567999H47.7243V16.376L71.6603 0.567999L78.1243 0.631998L66.9563 7.96C60.7163 12.056 53.1323 17.048 47.7243 20.568L44.0763 22.936ZM62.8923 13.56L62.8603 13.528L65.9643 11.48C72.6843 17.272 75.3083 19.48 79.3083 22.968H73.8683L68.3963 18.264C67.0203 17.08 65.6443 15.864 64.6203 15C64.0123 14.488 63.4363 14.008 62.8923 13.56Z" fill="black"/>
</svg>
